Hanif_Deep_7_5_grf.mot
version=1
nRows=26
nColumns=19
inDegrees=yes
endheader
time	right_ground_force_vx	right_ground_force_vy	right_ground_force_vz	right_ground_force_px	right_ground_force_py	right_ground_force_pz	right_ground_torque_x	right_ground_torque_y	right_ground_torque_z	left_ground_force_vx	left_ground_force_vy	left_ground_force_vz	left_ground_force_px	left_ground_force_py	left_ground_force_pz	left_ground_torque_x	left_ground_torque_y	left_ground_torque_z
7.600000	-14.886000	288.594000	-35.099900	0.200189	0.000000	-1.438680	-19.479000	0.000863	-0.066667	5.215160	319.849000	30.422300	0.234986	0.000000	-1.013080	35.120900	-7.017240	10.678700
7.605000	-15.590300	286.599000	-35.635900	0.200120	0.000000	-1.438060	-19.529700	0.012873	-0.098291	4.975960	321.031000	30.512600	0.235068	0.000000	-1.013440	35.369700	-7.040910	10.742700
7.610000	-15.682100	287.568000	-35.625500	0.200104	0.000000	-1.439960	-19.045200	-0.028122	-0.094319	4.950290	320.209000	30.172900	0.235025	0.000000	-1.012950	35.121400	-7.047090	10.702200
7.615000	-15.887800	286.661000	-35.561300	0.199528	0.000000	-1.439090	-19.239700	-0.031506	-0.265219	4.742720	317.192000	30.411700	0.234686	0.000000	-1.013760	35.049600	-7.055450	10.477200
7.620000	-15.034500	286.908000	-35.555300	0.199250	0.000000	-1.438790	-19.339200	0.056481	-0.350720	5.093710	317.191000	30.046400	0.234640	0.000000	-1.012880	34.765500	-7.059040	10.470300
7.625000	-15.134300	285.449000	-35.030200	0.199359	0.000000	-1.440260	-18.825300	0.112708	-0.321572	5.183700	316.381000	30.864000	0.234751	0.000000	-1.013630	34.910400	-7.114350	10.461200
7.630000	-14.395400	284.364000	-34.715200	0.198962	0.000000	-1.440220	-18.759100	0.085133	-0.425636	5.491850	317.724000	29.915700	0.234629	0.000000	-1.012970	34.844300	-7.122130	10.486300
7.635000	-14.443500	283.629000	-35.208200	0.199306	0.000000	-1.440820	-18.542900	0.107816	-0.330183	5.489990	315.684000	30.189300	0.234672	0.000000	-1.013360	34.741700	-7.177590	10.416900
7.640000	-14.388500	283.029000	-35.039900	0.199314	0.000000	-1.440280	-18.659900	0.202660	-0.339418	4.869900	314.150000	30.191200	0.235399	0.000000	-1.013150	34.516800	-7.165920	10.586200
7.645000	-13.963900	282.073000	-34.943600	0.199176	0.000000	-1.441050	-18.380000	0.252088	-0.379468	4.955030	314.042000	29.912600	0.235505	0.000000	-1.013170	34.511600	-7.136810	10.623300
7.650000	-14.259400	279.424000	-34.691000	0.199141	0.000000	-1.441100	-18.193200	0.198456	-0.383265	4.998360	313.203000	30.259700	0.234810	0.000000	-1.013080	34.389900	-7.086060	10.373000
7.655000	-13.817600	280.435000	-35.280700	0.199890	0.000000	-1.440270	-18.492200	0.317020	-0.185444	4.682360	315.930000	30.458100	0.235121	0.000000	-1.012190	34.414900	-7.149180	10.559100
7.660000	-13.857200	279.133000	-34.770300	0.199769	0.000000	-1.440470	-18.357900	0.397793	-0.228245	5.244400	314.484000	30.234900	0.235148	0.000000	-1.012280	34.273500	-7.144650	10.523700
7.665000	-13.492700	279.787000	-35.046000	0.199241	0.000000	-1.440760	-18.318500	0.441442	-0.381366	5.069280	315.742000	30.279200	0.234294	0.000000	-1.012080	34.353200	-7.140170	10.295800
7.670000	-14.210000	279.680000	-35.535900	0.199036	0.000000	-1.441400	-18.137200	0.415961	-0.443385	5.137500	312.692000	30.183300	0.234589	0.000000	-1.012690	34.206400	-7.167110	10.279100
7.675000	-14.963400	280.094000	-34.897100	0.199179	0.000000	-1.441230	-18.207000	0.245089	-0.384866	5.330350	314.099000	30.235400	0.234984	0.000000	-1.012620	34.340900	-7.035340	10.469300
7.680000	-14.948200	280.913000	-35.541200	0.199330	0.000000	-1.441750	-18.121700	0.368296	-0.359330	4.871350	312.856000	30.143400	0.234639	0.000000	-1.012370	34.129300	-7.145880	10.300500
7.685000	-14.929800	280.458000	-35.396000	0.198978	0.000000	-1.441280	-18.223400	0.372188	-0.460088	5.669450	309.587000	30.678000	0.235334	0.000000	-1.013000	33.954300	-7.117100	10.402800
7.690000	-14.902400	281.483000	-35.086800	0.198749	0.000000	-1.441650	-18.184400	0.310225	-0.515766	5.230880	311.039000	30.273700	0.234240	0.000000	-1.012590	33.994200	-7.071840	10.118300
7.695000	-14.921400	280.701000	-35.031800	0.198550	0.000000	-1.441720	-18.116300	0.362457	-0.578273	5.746260	311.500000	30.346600	0.234235	0.000000	-1.011690	33.757600	-7.025780	10.141700
7.700000	-15.029800	276.787000	-34.806500	0.198818	0.000000	-1.442140	-17.746000	0.311184	-0.492264	5.691990	311.043000	30.245900	0.234371	0.000000	-1.011940	33.787200	-7.033820	10.168100
7.705000	-14.382300	277.345000	-35.128200	0.197907	0.000000	-1.441420	-17.982900	0.378948	-0.755385	5.964850	310.196000	30.184700	0.234521	0.000000	-1.012270	33.791600	-7.046130	10.187600
7.710000	-14.132700	279.778000	-34.647000	0.198488	0.000000	-1.441340	-18.154000	0.286972	-0.578144	5.754080	309.050000	30.223000	0.234335	0.000000	-1.011850	33.539000	-7.025690	10.086800
7.715000	-13.935900	276.850000	-34.995200	0.198631	0.000000	-1.440810	-18.116600	0.382639	-0.548372	5.469560	309.424000	30.248900	0.234641	0.000000	-1.012550	33.801900	-6.978700	10.197500
7.720000	-14.365700	277.857000	-35.025200	0.199009	0.000000	-1.442080	-17.826900	0.348614	-0.439440	5.256370	310.624000	30.878300	0.234470	0.000000	-1.012200	33.830600	-6.902200	10.183900
7.725000	-14.783900	279.638000	-35.045400	0.198664	0.000000	-1.442380	-17.861800	0.356179	-0.541849	4.854840	310.919000	31.058100	0.234146	0.000000	-1.012350	33.917100	-6.885780	10.087600
